<mxfile host="Electron" modified="2024-08-08T04:14:37.280Z" agent="Mozilla/5.0 (X11; Linux x86_64) AppleWebKit/537.36 (KHTML, like Gecko) draw.io/24.6.4 Chrome/124.0.6367.207 Electron/30.0.6 Safari/537.36" etag="FC4ku6KM3R9W6ar99aQH" version="24.6.4" type="device">
  <diagram name="Page-1" id="Zgpcr-5dJkf6FELN9_xo">
    <mxGraphModel dx="989" dy="576" grid="1" gridSize="10" guides="1" tooltips="1" connect="1" arrows="1" fold="1" page="1" pageScale="1" pageWidth="850" pageHeight="1100" math="0" shadow="0">
      <root>
        <mxCell id="0" />
        <mxCell id="1" parent="0" />
        <mxCell id="eHy6FooCybgaKA9pbBnx-10" value="Data Base" style="text;html=1;align=center;verticalAlign=middle;resizable=0;points=[];autosize=1;strokeColor=none;fillColor=none;fontStyle=1;fontFamily=Times New Roman;fontSize=21;" vertex="1" parent="1">
          <mxGeometry x="55" y="43" width="110" height="40" as="geometry" />
        </mxCell>
        <mxCell id="eHy6FooCybgaKA9pbBnx-11" value="" style="strokeWidth=2;html=1;shape=mxgraph.flowchart.database;whiteSpace=wrap;" vertex="1" parent="1">
          <mxGeometry x="80" y="83" width="60" height="77" as="geometry" />
        </mxCell>
        <mxCell id="eHy6FooCybgaKA9pbBnx-16" value="Jobs" style="shape=table;startSize=30;container=1;collapsible=1;childLayout=tableLayout;fixedRows=1;rowLines=0;fontStyle=1;align=center;resizeLast=1;html=1;fillColor=#1ba1e2;strokeColor=#006EAF;fontColor=#ffffff;" vertex="1" parent="1">
          <mxGeometry x="260" y="100" width="100" height="120" as="geometry" />
        </mxCell>
        <mxCell id="eHy6FooCybgaKA9pbBnx-17" value="" style="shape=tableRow;horizontal=0;startSize=0;swimlaneHead=0;swimlaneBody=0;fillColor=none;collapsible=0;dropTarget=0;points=[[0,0.5],[1,0.5]];portConstraint=eastwest;top=0;left=0;right=0;bottom=1;" vertex="1" parent="eHy6FooCybgaKA9pbBnx-16">
          <mxGeometry y="30" width="100" height="30" as="geometry" />
        </mxCell>
        <mxCell id="eHy6FooCybgaKA9pbBnx-18" value="PK" style="shape=partialRectangle;connectable=0;fillColor=none;top=0;left=0;bottom=0;right=0;fontStyle=1;overflow=hidden;whiteSpace=wrap;html=1;" vertex="1" parent="eHy6FooCybgaKA9pbBnx-17">
          <mxGeometry width="30" height="30" as="geometry">
            <mxRectangle width="30" height="30" as="alternateBounds" />
          </mxGeometry>
        </mxCell>
        <mxCell id="eHy6FooCybgaKA9pbBnx-19" value="UniqueID" style="shape=partialRectangle;connectable=0;fillColor=none;top=0;left=0;bottom=0;right=0;align=left;spacingLeft=6;fontStyle=5;overflow=hidden;whiteSpace=wrap;html=1;" vertex="1" parent="eHy6FooCybgaKA9pbBnx-17">
          <mxGeometry x="30" width="70" height="30" as="geometry">
            <mxRectangle width="70" height="30" as="alternateBounds" />
          </mxGeometry>
        </mxCell>
        <mxCell id="eHy6FooCybgaKA9pbBnx-20" value="" style="shape=tableRow;horizontal=0;startSize=0;swimlaneHead=0;swimlaneBody=0;fillColor=none;collapsible=0;dropTarget=0;points=[[0,0.5],[1,0.5]];portConstraint=eastwest;top=0;left=0;right=0;bottom=0;" vertex="1" parent="eHy6FooCybgaKA9pbBnx-16">
          <mxGeometry y="60" width="100" height="30" as="geometry" />
        </mxCell>
        <mxCell id="eHy6FooCybgaKA9pbBnx-21" value="" style="shape=partialRectangle;connectable=0;fillColor=none;top=0;left=0;bottom=0;right=0;editable=1;overflow=hidden;whiteSpace=wrap;html=1;" vertex="1" parent="eHy6FooCybgaKA9pbBnx-20">
          <mxGeometry width="30" height="30" as="geometry">
            <mxRectangle width="30" height="30" as="alternateBounds" />
          </mxGeometry>
        </mxCell>
        <mxCell id="eHy6FooCybgaKA9pbBnx-22" value="Day" style="shape=partialRectangle;connectable=0;fillColor=none;top=0;left=0;bottom=0;right=0;align=left;spacingLeft=6;overflow=hidden;whiteSpace=wrap;html=1;" vertex="1" parent="eHy6FooCybgaKA9pbBnx-20">
          <mxGeometry x="30" width="70" height="30" as="geometry">
            <mxRectangle width="70" height="30" as="alternateBounds" />
          </mxGeometry>
        </mxCell>
        <mxCell id="eHy6FooCybgaKA9pbBnx-23" value="" style="shape=tableRow;horizontal=0;startSize=0;swimlaneHead=0;swimlaneBody=0;fillColor=none;collapsible=0;dropTarget=0;points=[[0,0.5],[1,0.5]];portConstraint=eastwest;top=0;left=0;right=0;bottom=0;" vertex="1" parent="eHy6FooCybgaKA9pbBnx-16">
          <mxGeometry y="90" width="100" height="30" as="geometry" />
        </mxCell>
        <mxCell id="eHy6FooCybgaKA9pbBnx-24" value="" style="shape=partialRectangle;connectable=0;fillColor=none;top=0;left=0;bottom=0;right=0;editable=1;overflow=hidden;whiteSpace=wrap;html=1;" vertex="1" parent="eHy6FooCybgaKA9pbBnx-23">
          <mxGeometry width="30" height="30" as="geometry">
            <mxRectangle width="30" height="30" as="alternateBounds" />
          </mxGeometry>
        </mxCell>
        <mxCell id="eHy6FooCybgaKA9pbBnx-25" value="Link" style="shape=partialRectangle;connectable=0;fillColor=none;top=0;left=0;bottom=0;right=0;align=left;spacingLeft=6;overflow=hidden;whiteSpace=wrap;html=1;" vertex="1" parent="eHy6FooCybgaKA9pbBnx-23">
          <mxGeometry x="30" width="70" height="30" as="geometry">
            <mxRectangle width="70" height="30" as="alternateBounds" />
          </mxGeometry>
        </mxCell>
        <mxCell id="eHy6FooCybgaKA9pbBnx-29" value="Add Job" style="text;html=1;align=center;verticalAlign=middle;resizable=0;points=[];autosize=1;strokeColor=none;fillColor=none;fontStyle=1;fontFamily=Times New Roman;fontSize=21;" vertex="1" parent="1">
          <mxGeometry x="550" y="43" width="90" height="40" as="geometry" />
        </mxCell>
        <mxCell id="eHy6FooCybgaKA9pbBnx-30" value="Delete Job" style="text;html=1;align=center;verticalAlign=middle;resizable=0;points=[];autosize=1;strokeColor=none;fillColor=none;fontStyle=1;fontFamily=Times New Roman;fontSize=21;" vertex="1" parent="1">
          <mxGeometry x="660" y="43" width="110" height="40" as="geometry" />
        </mxCell>
        <mxCell id="eHy6FooCybgaKA9pbBnx-31" value="Select Job" style="text;html=1;align=center;verticalAlign=middle;resizable=0;points=[];autosize=1;strokeColor=none;fillColor=none;fontStyle=1;fontFamily=Times New Roman;fontSize=21;" vertex="1" parent="1">
          <mxGeometry x="430" y="43" width="110" height="40" as="geometry" />
        </mxCell>
        <mxCell id="eHy6FooCybgaKA9pbBnx-32" value="to compare dates an links with current get jobs" style="rounded=1;whiteSpace=wrap;html=1;" vertex="1" parent="1">
          <mxGeometry x="430" y="83" width="100" height="67" as="geometry" />
        </mxCell>
        <mxCell id="eHy6FooCybgaKA9pbBnx-33" value="When the current job not exist" style="rounded=1;whiteSpace=wrap;html=1;" vertex="1" parent="1">
          <mxGeometry x="545" y="83" width="100" height="67" as="geometry" />
        </mxCell>
        <mxCell id="eHy6FooCybgaKA9pbBnx-34" value="When start the program we need to relate current day with all dates on the table and if don&#39;t match I going to delete that record in the db." style="rounded=1;whiteSpace=wrap;html=1;" vertex="1" parent="1">
          <mxGeometry x="665" y="83" width="100" height="147" as="geometry" />
        </mxCell>
      </root>
    </mxGraphModel>
  </diagram>
</mxfile>
